<?xml version="1.0" encoding="UTF-8" standalone="no"?>
<!-- Created with Inkscape (http://www.inkscape.org/) -->

<svg
   xmlns:dc="http://purl.org/dc/elements/1.1/"
   xmlns:cc="http://creativecommons.org/ns#"
   xmlns:rdf="http://www.w3.org/1999/02/22-rdf-syntax-ns#"
   xmlns:svg="http://www.w3.org/2000/svg"
   xmlns="http://www.w3.org/2000/svg"
   xmlns:xlink="http://www.w3.org/1999/xlink"
   xmlns:sodipodi="http://sodipodi.sourceforge.net/DTD/sodipodi-0.dtd"
   xmlns:inkscape="http://www.inkscape.org/namespaces/inkscape"
   width="210mm"
   height="297mm"
   viewBox="0 0 210 297"
   version="1.1"
   id="svg8"
   inkscape:version="0.92.4 (5da689c313, 2019-01-14)"
   sodipodi:docname="flexUILogo.svg">
  <defs
     id="defs2">
    <inkscape:path-effect
       effect="bspline"
       id="path-effect4563"
       is_visible="true"
       weight="33.333333"
       steps="2"
       helper_size="0"
       apply_no_weight="true"
       apply_with_weight="true"
       only_selected="false" />
    <inkscape:path-effect
       effect="bspline"
       id="path-effect4559"
       is_visible="true"
       weight="33.333333"
       steps="2"
       helper_size="0"
       apply_no_weight="true"
       apply_with_weight="true"
       only_selected="false" />
    <inkscape:path-effect
       effect="bspline"
       id="path-effect4555"
       is_visible="true"
       weight="33.333333"
       steps="2"
       helper_size="0"
       apply_no_weight="true"
       apply_with_weight="true"
       only_selected="false" />
    <inkscape:path-effect
       effect="bspline"
       id="path-effect829"
       is_visible="true"
       weight="33.333333"
       steps="2"
       helper_size="0"
       apply_no_weight="true"
       apply_with_weight="true"
       only_selected="false" />
    <clipPath
       clipPathUnits="userSpaceOnUse"
       id="clipPath4619">
      <use
         x="0"
         y="0"
         xlink:href="#g4615"
         id="use4621"
         width="100%"
         height="100%" />
    </clipPath>
  </defs>
  <sodipodi:namedview
     id="base"
     pagecolor="#ffffff"
     bordercolor="#666666"
     borderopacity="1.0"
     inkscape:pageopacity="0"
     inkscape:pageshadow="2"
     inkscape:zoom="1.4142136"
     inkscape:cx="339.18617"
     inkscape:cy="400.12331"
     inkscape:document-units="mm"
     inkscape:current-layer="g4615"
     showgrid="false"
     inkscape:window-width="1920"
     inkscape:window-height="1027"
     inkscape:window-x="-8"
     inkscape:window-y="-8"
     inkscape:window-maximized="1"
     inkscape:snap-text-baseline="true" />
  <metadata
     id="metadata5">
    <rdf:RDF>
      <cc:Work
         rdf:about="">
        <dc:format>image/svg+xml</dc:format>
        <dc:type
           rdf:resource="http://purl.org/dc/dcmitype/StillImage" />
        <dc:title></dc:title>
      </cc:Work>
    </rdf:RDF>
  </metadata>
  <g
     inkscape:label="Layer 1"
     inkscape:groupmode="layer"
     id="layer1">
    <text
       xml:space="preserve"
       style="font-style:normal;font-variant:normal;font-weight:normal;font-stretch:normal;font-size:10.58333302px;line-height:1.25;font-family:'Advent Pro';-inkscape-font-specification:'Advent Pro';letter-spacing:0px;word-spacing:0px;fill:#000000;fill-opacity:1;stroke:none;stroke-width:0.26458332"
       x="50.648811"
       y="116.32738"
       id="text817"><tspan
         sodipodi:role="line"
         id="tspan815"
         x="50.648811"
         y="126.18067"
         style="stroke-width:0.26458332"></tspan></text>
    <path
       style="fill:none;stroke:#000000;stroke-width:0.26458332px;stroke-linecap:butt;stroke-linejoin:miter;stroke-opacity:1"
       d="m 147.39914,155.07988 c 0.0223,-0.20075 0.0446,-0.4012 0.0668,-0.60136"
       id="path4553"
       inkscape:connector-curvature="0"
       inkscape:path-effect="#path-effect4555"
       inkscape:original-d="m 147.39914,155.07988 c 0.0226,-0.20072 0.0448,-0.40117 0.0668,-0.60136" />
    <g
       id="g4617"
       clip-path="url(#clipPath4619)"
       inkscape:export-xdpi="300"
       inkscape:export-ydpi="300">
      <g
         inkscape:label="Clip"
         id="g4615">
        <g
           id="g4673">
          <g
             inkscape:export-ydpi="300"
             inkscape:export-xdpi="300"
             id="g4567"
             transform="matrix(0.67519107,0,0,0.67519107,-34.577599,104.43071)"
             style="fill:#000000;fill-opacity:1">
            <path
               transform="matrix(0.26458333,0,0,0.26458333,9.7328869,-6.4255952)"
               inkscape:connector-curvature="0"
               id="path4557"
               d="m 316.1543,552.52148 c -2.28826,0.0128 -4.78854,0.42893 -7.14063,1.53907 -3.76334,1.77622 -7.31683,5.33017 -9.09375,10.11914 -1.77692,4.78896 -1.77785,10.81689 -2.92773,14.97851 -1.14989,4.16162 -3.45103,6.46188 -7.06836,8.27344 -3.61733,1.81156 -8.55424,3.13437 -12.80664,4.82617 -4.2524,1.69181 -7.82434,3.75547 -10.53516,6.38867 -2.71082,2.63321 -4.56292,5.83811 -4.16015,9.74219 0.40276,3.90408 3.06052,8.50576 6.67578,11.41992 3.61525,2.91417 8.18692,4.13986 12.92773,5.41016 4.74081,1.2703 9.649,2.58491 12.97656,4.75586 3.32757,2.17095 5.07545,5.20032 5.94922,8.875 0.87378,3.67468 0.87364,7.99868 0.0606,11.56836 -0.81309,3.56968 -2.47612,6.45261 -4.3418,8.90039 -1.86567,2.44778 -4.00808,4.58988 -6.0664,5.39648 -2.05832,0.8066 -4.03525,0.27771 -6.97852,0.53711 -2.94327,0.25941 -6.85696,1.30848 -10.14062,3.16016 -3.28367,1.85168 -5.93943,4.50879 -7.26758,7.59375 -1.32816,3.08496 -1.32952,6.59858 -0.0625,10.55078 1.26702,3.9522 3.80064,8.3418 7.50586,10.53711 3.70522,2.19531 8.58118,2.19508 13.65039,3.71484 5.06921,1.51976 10.33328,4.5588 12.96484,9.25782 2.63156,4.69901 2.6323,11.05904 4.12891,15.73632 1.4966,4.67729 4.48865,7.67115 9.29687,9.16797 4.80822,1.49683 11.42703,1.49623 15.85938,-0.44531 4.43234,-1.94154 6.67432,-5.82202 7.79492,-9.49414 1.12059,-3.67212 1.12095,-7.13262 1.66992,-10.91211 0.54897,-3.77949 1.65195,-7.89603 5.23047,-10.74609 3.57851,-2.85007 9.64148,-4.47454 14.58984,-4.77344 4.94837,-0.2989 8.77939,0.72868 12.41602,2.96289 3.63663,2.23421 7.12081,5.71719 8.82031,9.95117 1.6995,4.23398 1.69993,9.30509 3.1543,13.29492 1.45437,3.98983 4.36205,6.89806 7.63476,8.83985 3.27272,1.94179 6.90668,2.9157 10.28516,2.50195 3.37848,-0.41375 6.46126,-2.19406 8.56055,-5.05078 2.09928,-2.85672 3.14165,-6.74524 3.08203,-10.85742 -0.0596,-4.11218 -1.22171,-8.44735 -3.40821,-11.54102 -2.18649,-3.09366 -5.39851,-4.94977 -9.10742,-5.87695 -3.7089,-0.92718 -8.00192,-0.92641 -10.84375,-1.37695 -2.84182,-0.45054 -4.40113,-1.35218 -6.63476,-3.25586 -2.23364,-1.90369 -5.18098,-4.85065 -6.61328,-8.13282 -1.4323,-3.28217 -1.43244,-6.97953 -0.63086,-11.82031 0.80157,-4.84078 2.40428,-10.8217 6.53125,-13.8125 4.12696,-2.9908 10.77594,-2.99104 15.7832,-3.63476 5.00726,-0.64373 8.37092,-1.93053 10.73438,-3.75391 2.36345,-1.82338 3.72453,-4.18034 3.89062,-7.2793 0.16609,-3.09896 -0.86241,-6.93968 -2.97266,-10.45508 -2.11025,-3.51539 -5.30437,-6.70726 -8.66015,-8.30273 -3.35579,-1.59547 -6.8772,-1.59638 -10.31055,0.0762 -3.43334,1.67255 -6.78086,5.02056 -9.10547,9.125 -2.32461,4.10445 -3.6285,8.96978 -5.10156,12.82422 -1.47306,3.85444 -3.1175,6.70139 -6.24219,8.74219 -3.12469,2.04079 -7.73123,3.2752 -11.92187,3.38672 -4.19065,0.11151 -7.9661,-0.89894 -11.33399,-2.88477 -3.36788,-1.98583 -6.28543,-4.9035 -7.78711,-7.55273 -1.50167,-2.64923 -1.50066,-4.94285 -2.02929,-8.0625 -0.52864,-3.11965 -1.6074,-7.14162 -3.22461,-10.17383 -1.61722,-3.03222 -3.81696,-5.23308 -6.50391,-6.33203 -2.68695,-1.09895 -5.86354,-1.09783 -9.68945,-1.69727 -3.82591,-0.59944 -8.30153,-1.79982 -11.72071,-4.44531 -3.41917,-2.64549 -5.78081,-6.73528 -7.4707,-10.67969 -1.68989,-3.94441 -2.70534,-7.73843 -2.32226,-11.18164 0.38307,-3.44321 2.16528,-6.53027 4.39843,-9.41601 2.23316,-2.88574 4.91447,-5.56915 8.49805,-6.91016 3.58358,-1.34101 8.06655,-1.34014 11.75586,-2.78711 3.68931,-1.44697 6.58074,-4.33789 8.4707,-7.43945 1.88997,-3.10156 2.77748,-6.41025 2.25196,-9.74219 -0.52553,-3.33194 -2.46434,-6.68894 -4.44922,-8.95313 -1.98489,-2.26418 -4.01916,-3.43848 -7.06446,-4.02539 -1.14198,-0.22009 -2.43759,-0.3573 -3.81054,-0.34961 z m 2.63476,108.40821 c 2.18818,0 2.18981,-4.5e-4 3.69336,0.0117 1.50355,0.0122 4.50876,0.0363 7.64063,1.67773 3.13186,1.64146 6.39056,4.90102 8.01953,8.89648 1.62897,3.99547 1.63048,8.73205 1.04101,13.29883 -0.58946,4.56679 -1.77034,8.96763 -4.24414,12.25586 -2.4738,3.28823 -6.24265,5.4658 -10.75,5.85157 -4.50734,0.38576 -9.75383,-1.01965 -14.42383,-3.76954 -4.66999,-2.74988 -8.76275,-6.84278 -10.11523,-11.48437 -1.35247,-4.64159 0.0379,-9.82682 1.86133,-14.375 1.82342,-4.54819 4.11509,-8.51918 7.41406,-10.44141 3.29897,-1.92223 7.67511,-1.92187 9.86328,-1.92187 z"
               mask="none"
               style="fill:#000000;fill-opacity:1;stroke:#f8f8f8;stroke-width:0.99999994px;stroke-linecap:butt;stroke-linejoin:miter;stroke-opacity:1" />
          </g>
          <text
             transform="scale(0.88841626,1.1255985)"
             id="text4657"
             y="194.81013"
             x="54.931843"
             style="font-style:normal;font-variant:normal;font-weight:normal;font-stretch:normal;font-size:12.14971828px;line-height:1.25;font-family:'Advent Pro';-inkscape-font-specification:'Advent Pro';letter-spacing:0px;word-spacing:0px;fill:#000000;fill-opacity:1;stroke:none;stroke-width:0.30374297"
             xml:space="preserve"><tspan
               style="font-size:21.86949348px;stroke-width:0.30374297"
               y="194.81013"
               x="54.931843"
               id="tspan4655"
               sodipodi:role="line">Flex UI</tspan></text>
          <text
             xml:space="preserve"
             style="font-style:normal;font-variant:normal;font-weight:normal;font-stretch:normal;font-size:34.46539307px;line-height:1.25;font-family:'Advent Pro';-inkscape-font-specification:'Advent Pro';letter-spacing:0px;word-spacing:0px;fill:#000000;fill-opacity:1;stroke:none;stroke-width:0.86163485"
             x="61.59663"
             y="187.42995"
             id="text4665"
             transform="scale(0.80785291,1.2378491)"><tspan
               sodipodi:role="line"
               id="tspan4663"
               x="61.59663"
               y="187.42995"
               style="font-size:9.9338522px;stroke-width:0.86163485">Flexible Interface Framework</tspan></text>
        </g>
      </g>
    </g>
  </g>
</svg>
